<?xml version="1.0" standalone="no"?>
<!DOCTYPE svg PUBLIC "-//W3C//DTD SVG 20010904//EN"
 "http://www.w3.org/TR/2001/REC-SVG-20010904/DTD/svg10.dtd">
<svg version="1.0" xmlns="http://www.w3.org/2000/svg"
 width="256.000000pt" height="256.000000pt" viewBox="0 0 256.000000 256.000000"
 preserveAspectRatio="xMidYMid meet">

<g transform="translate(0.000000,256.000000) scale(0.100000,-0.100000)"
fill="#000000" stroke="none">
<path d="M1165 2370 c-167 -16 -347 -66 -480 -132 -230 -116 -425 -317 -514
-532 -64 -154 -75 -212 -75 -411 0 -162 3 -190 26 -275 47 -176 124 -313 249
-444 158 -167 340 -269 593 -332 125 -32 402 -44 536 -25 261 39 510 166 680
347 65 70 140 179 166 239 l14 35 -255 0 -255 0 -76 -60 c-84 -67 -186 -120
-284 -146 -97 -27 -317 -24 -425 4 -260 70 -444 248 -499 482 -23 94 -21 259
4 354 33 130 103 240 207 327 60 51 206 122 298 145 98 25 325 26 415 1 101
-28 218 -90 297 -156 l73 -61 250 0 c166 0 250 3 250 10 0 45 -124 222 -219
313 -127 121 -258 200 -429 257 -157 52 -377 77 -547 60z"/>
</g>
</svg>
