<?xml version="1.0" encoding="UTF-8" standalone="no"?>
<svg
   xmlns:dc="http://purl.org/dc/elements/1.1/"
   xmlns:cc="http://creativecommons.org/ns#"
   xmlns:rdf="http://www.w3.org/1999/02/22-rdf-syntax-ns#"
   xmlns:svg="http://www.w3.org/2000/svg"
   xmlns="http://www.w3.org/2000/svg"
   viewBox="0 0 729.45331 188.97333"
   height="188.97333"
   width="729.45331"
   xml:space="preserve"
   id="svg2"
   version="1.1"><metadata
     id="metadata8"><rdf:RDF><cc:Work
         rdf:about=""><dc:format>image/svg+xml</dc:format><dc:type
           rdf:resource="http://purl.org/dc/dcmitype/StillImage" /></cc:Work></rdf:RDF></metadata><defs
     id="defs6" /><g
     transform="matrix(1.3333333,0,0,-1.3333333,0,188.97333)"
     id="g10"><g
       transform="scale(0.1)"
       id="g12"><path
         id="path14"
         style="fill:#000000;fill-opacity:1;fill-rule:nonzero;stroke:none"
         d="m 1055.33,739.258 c -54.07,137.14 -214.127,266.022 -437.822,266.022 -279.461,0 -498.453,-181.405 -498.453,-446.159 0,-264.75 218.992,-446.152 498.453,-446.152 223.621,0 380.383,127.16 436.122,262.621 H 840.852 C 788.313,319.57 709.41,279.66 615.875,279.66 c -174.867,0 -308.879,104.602 -308.879,279.461 0,174.867 134.012,279.461 308.879,279.461 95.441,0 175.73,-41.5 228.234,-99.324 h 211.221" /><path
         id="path16"
         style="fill:#000000;fill-opacity:1;fill-rule:nonzero;stroke:none"
         d="m 1318.86,501.922 h 769.75 v 68.641 c 0,246.773 -178.14,434.717 -460.87,434.717 -292.53,0 -495.18,-194.479 -495.18,-446.159 0,-264.75 209.18,-446.152 495.18,-446.152 230.43,0 393.98,128.609 446.28,262.621 h -208.8 c -53.67,-59.102 -135.9,-95.93 -237.48,-95.93 -160.16,0 -282.73,84.981 -308.88,222.262 z m 8.18,147.086 c 37.58,125.84 155.25,192.844 290.9,192.844 161.79,0 268.02,-102.961 281.09,-192.844 h -571.99" /><path
         id="path18"
         style="fill:#000000;fill-opacity:1;fill-rule:nonzero;stroke:none"
         d="M 2449.87,1304.35 H 2253.76 V 130.941 h 196.11 V 1304.35" /><path
         id="path20"
         style="fill:#000000;fill-opacity:1;fill-rule:nonzero;stroke:none"
         d="m 3181.3,130.941 424.91,857.997 H 3393.76 L 3084.88,346.672 2774.37,988.938 h -217.36 l 426.54,-857.997 h 197.75" /><path
         id="path22"
         style="fill:#000000;fill-opacity:1;fill-rule:nonzero;stroke:none"
         d="m 5351.81,980.766 c -24.51,6.535 -57.2,13.074 -96.42,13.074 -138.91,0 -254.95,-44.125 -328.49,-160.16 V 988.938 H 4730.79 V 130.941 H 4926.9 V 511.73 c 0,204.282 127.47,287.629 323.59,287.629 44.12,0 62.1,-4.902 101.32,-14.707 v 196.114" /><path
         id="path24"
         style="fill:#000000;fill-opacity:1;fill-rule:nonzero;stroke:none"
         d="m 3798.02,501.922 h 769.74 v 68.641 c 0,246.773 -178.13,434.717 -460.86,434.717 -292.54,0 -495.19,-194.479 -495.19,-446.159 0,-264.75 209.19,-446.152 495.19,-446.152 230.43,0 393.97,128.609 446.27,262.621 h -208.79 c -53.68,-59.102 -135.91,-95.93 -237.48,-95.93 -160.16,0 -282.73,84.981 -308.88,222.262 z m 8.17,147.086 c 37.59,125.84 155.26,192.844 290.9,192.844 161.79,0 268.02,-102.961 281.1,-192.844 h -572" /></g></g></svg>