<svg width="283" height="282" xmlns="http://www.w3.org/2000/svg" xmlns:xlink="http://www.w3.org/1999/xlink" xml:space="preserve" overflow="hidden"><defs><clipPath id="clip0"><rect x="483" y="347" width="283" height="282"/></clipPath></defs><g clip-path="url(#clip0)" transform="translate(-483 -347)"><path d="M300.442 210.46C285.049 249.502 239.482 286.194 175.799 286.194 96.2387 286.194 33.8938 234.549 33.8938 159.176 33.8938 83.8046 96.2387 32.1612 175.799 32.1612 239.461 32.1612 284.09 68.3624 299.958 106.927L239.382 106.927C224.425 90.9785 201.962 79.6165 175.334 79.6165 125.551 79.6165 87.3988 109.396 87.3988 159.176 87.3988 208.959 125.551 238.736 175.334 238.736 202.505 238.736 225.362 226.922 240.31 210.46L300.442 210.46" transform="matrix(1 0 0 -1.00363 454.98 649.222)"/><path d="M375.467 142.892 594.607 142.892 594.607 162.434C594.607 232.688 543.892 286.194 463.402 286.194 380.121 286.194 322.429 230.827 322.429 159.176 322.429 83.8046 381.98 32.1612 463.402 32.1612 529.003 32.1612 575.564 68.7749 590.453 106.927L531.01 106.927C515.731 90.1011 492.321 79.6165 463.402 79.6165 417.806 79.6165 382.911 103.81 375.467 142.892ZM377.796 184.766C388.494 220.592 421.994 239.667 460.612 239.667 506.672 239.667 536.915 210.355 540.635 184.766L377.796 184.766" transform="matrix(1 0 0 -1.00363 454.98 649.222)"/><path d="M697.454 371.336 641.624 371.336 641.624 37.2776 697.454 37.2776 697.454 371.336" transform="matrix(1 0 0 -1.00363 454.98 649.222)"/><path d="M905.685 37.2776 1026.65 281.541 966.171 281.541 878.236 98.6942 789.836 281.541 727.956 281.541 849.388 37.2776 905.685 37.2776" transform="matrix(1 0 0 -1.00363 454.98 649.222)"/><path d="M1523.61 279.215C1516.63 281.075 1507.32 282.937 1496.16 282.937 1456.61 282.937 1423.58 270.375 1402.64 237.341L1402.64 281.541 1346.81 281.541 1346.81 37.2776 1402.64 37.2776 1402.64 145.685C1402.64 203.842 1438.93 227.57 1494.76 227.57 1507.32 227.57 1512.44 226.174 1523.61 223.383L1523.61 279.215" transform="matrix(1 0 0 -1.00363 454.98 649.222)"/><path d="M1081.26 142.892 1300.4 142.892 1300.4 162.434C1300.4 232.688 1249.69 286.194 1169.19 286.194 1085.91 286.194 1028.22 230.827 1028.22 159.176 1028.22 83.8046 1087.77 32.1612 1169.19 32.1612 1234.8 32.1612 1281.35 68.7749 1296.24 106.927L1236.8 106.927C1221.52 90.1011 1198.11 79.6165 1169.19 79.6165 1123.6 79.6165 1088.7 103.81 1081.26 142.892ZM1083.59 184.766C1094.29 220.592 1127.79 239.667 1166.4 239.667 1212.46 239.667 1242.7 210.355 1246.43 184.766L1083.59 184.766" transform="matrix(1 0 0 -1.00363 454.98 649.222)"/></g></svg>